<svg width="16" height="16" viewBox="0 0 16 16" fill="none" xmlns="http://www.w3.org/2000/svg">
<path fill-rule="evenodd" clip-rule="evenodd" d="M8.41203 2.21104C8.59116 2.13017 8.80103 2.16175 8.94843 2.29175L14.4291 7.12508C14.9558 7.58955 14.9558 8.41061 14.4291 8.87508L8.94843 13.7084C8.80103 13.8384 8.59116 13.87 8.41203 13.7891C8.2329 13.7083 8.11776 13.5299 8.11776 13.3334V10.8339C6.8193 10.8382 5.70896 10.8739 4.7009 11.1628C3.62768 11.4703 2.65314 12.0719 1.73203 13.3001C1.6029 13.4723 1.37809 13.5425 1.17392 13.4744C0.969745 13.4064 0.832031 13.2153 0.832031 13.0001C0.832031 9.92095 1.85133 7.93748 3.3765 6.73488C4.7725 5.63413 6.52462 5.24184 8.11776 5.17685V2.66675C8.11776 2.47021 8.2329 2.2919 8.41203 2.21104ZM9.11776 3.77436V5.53342C9.11776 5.88235 8.8367 6.16363 8.49043 6.16745C6.9161 6.18482 5.25469 6.52739 3.99568 7.52015C2.9773 8.32315 2.1686 9.59428 1.9151 11.6049C2.6933 10.8922 3.52749 10.4588 4.42544 10.2015C5.68508 9.84055 7.0525 9.83375 8.48383 9.83341C8.83156 9.83335 9.11776 10.1148 9.11776 10.4667V12.2258L13.7677 8.12508C13.8429 8.05875 13.8429 7.94141 13.7677 7.87508L9.11776 3.77436Z" fill="#365327"/>
</svg>
