<svg width="20" height="20" viewBox="0 0 20 20" fill="none" xmlns="http://www.w3.org/2000/svg">
<path d="M8.28125 8.14209H8.86719V10.4858H10.0391V8.14209V6.97021V4.62646H8.86719V6.97021H8.28125V4.62646H7.10938V6.97021V8.14209V10.4858H8.28125V8.14209Z" fill="#66CCFF"/>
<path d="M12.9688 9.31396H11.7969V8.14209H12.9688V6.97021H11.7969V5.79834H12.9688V4.62646H10.625V6.97021V8.14209V10.4858H12.9688V9.31396Z" fill="#59ABFF"/>
<path d="M15.8984 9.31396H14.7266V4.62646H13.5547V10.4858H15.8984V9.31396Z" fill="#59ABFF"/>
<path d="M18.2422 8.14209C19.2114 8.14209 20 7.35353 20 6.38428C20 5.41502 19.2114 4.62646 18.2422 4.62646H17.0703V6.97021V8.14209V10.4858H18.2422V8.14209ZM18.2422 5.79834C18.5653 5.79834 18.8281 6.06119 18.8281 6.38428C18.8281 6.70736 18.5653 6.97021 18.2422 6.97021V5.79834Z" fill="#59ABFF"/>
<path d="M3.59375 11.6577V17.5171H4.76562C5.73488 17.5171 6.52344 16.7285 6.52344 15.7593V13.4155C6.52344 12.4463 5.73488 11.6577 4.76562 11.6577H3.59375ZM5.35156 13.4155V15.7593C5.35156 16.0824 5.08871 16.3452 4.76562 16.3452V12.8296C5.08871 12.8296 5.35156 13.0924 5.35156 13.4155Z" fill="#5C7199"/>
<path d="M9.45312 16.3452H8.28125V15.1733H9.45312V14.0015H8.28125V12.8296H9.45312V11.6577H7.10938V14.0015V15.1733V17.5171H9.45312V16.3452Z" fill="#5C7199"/>
<path d="M11.7969 15.1733C12.12 15.1733 12.3828 15.4362 12.3828 15.7593C12.3828 16.0824 12.12 16.3452 11.7969 16.3452C11.6404 16.3452 11.4932 16.2843 11.3826 16.1736L10.9683 15.7593L10.1396 16.5879L10.5539 17.0022C10.8859 17.3342 11.3274 17.5171 11.7969 17.5171C12.7661 17.5171 13.5547 16.7285 13.5547 15.7592C13.5547 14.79 12.7661 14.0014 11.7969 14.0014C11.4738 14.0014 11.2109 13.7386 11.2109 13.4155C11.2109 13.0924 11.4738 12.8296 11.7969 12.8296C11.9534 12.8296 12.1005 12.8905 12.2112 13.0012L12.6255 13.4155L13.4541 12.5869L13.0398 12.1726C12.7078 11.8405 12.2664 11.6577 11.7969 11.6577C10.8276 11.6577 10.0391 12.4463 10.0391 13.4155C10.0391 14.3848 10.8276 15.1733 11.7969 15.1733Z" fill="#4D5680"/>
<path d="M15.3125 11.6577H14.1406V14.0015V15.1733V17.5171H15.3125V15.8976L16.2223 17.7172L17.2705 17.1932L15.9676 14.5874L17.2705 11.9816L16.2223 11.4575L15.3125 13.2772V11.6577Z" fill="#4D5680"/>
<path d="M2.34375 8.14209V6.97021H1.17188V5.2124C1.17188 4.24314 1.96043 3.45459 2.92969 3.45459C3.89895 3.45459 4.6875 4.24314 4.6875 5.2124V6.97021H3.51562V8.14209H4.6875V8.72803C4.6875 9.05111 4.42465 9.31396 4.10156 9.31396H2.34375V10.4858H4.10156C5.07082 10.4858 5.85938 9.69729 5.85938 8.72803V8.14209V6.97021V5.2124C5.85938 3.59697 4.54512 2.28271 2.92969 2.28271C1.31426 2.28271 0 3.59697 0 5.2124V6.97021V8.14209H1.17188H2.34375Z" fill="#5C7199"/>
</svg>
